<svg xmlns="http://www.w3.org/2000/svg" width="512" height="512" viewBox="0 0 512 512">
 <title>ionicons-v5-g</title>
 <path transform="rotate(135 255.57904052734375,256.105712890625)" d="m379.235507,460.65401c-17.886754,0 -43.012511,-6.447114 -80.637004,-27.395668c-45.752337,-25.56929 -81.140985,-49.175225 -126.645913,-94.405473c-43.873861,-43.696091 -65.22434,-71.986684 -95.105848,-126.175316c-33.757582,-61.183659 -28.003032,-93.254855 -21.570399,-106.961821c7.660515,-16.38261 18.968023,-26.181127 33.58348,-35.906589a161.548907,160.995211 0 0 1 26.24368,-13.880472c0.91633,-0.392671 1.768516,-0.767079 2.52907,-1.104959c4.535831,-2.036411 11.408303,-5.113858 20.113435,-1.826378c5.80953,2.17339 10.995955,6.62062 19.114635,14.611023c16.649709,16.364346 39.402172,52.809717 47.795752,70.70822c5.635427,12.063226 9.364888,20.026234 9.374052,28.957221c0,10.456013 -5.278058,18.519472 -11.683202,27.222162c-1.200392,1.634608 -2.39162,3.196161 -3.546196,4.712055c-6.973268,9.131889 -8.503539,11.771005 -7.495576,16.48306c2.043415,9.469769 17.281976,37.659912 42.325264,62.562575s52.514849,39.130146 62.05384,41.157426c4.929853,1.050167 7.633026,-0.538781 17.089547,-7.73471c1.356168,-1.031904 2.748989,-2.100335 4.205953,-3.168766c9.768073,-7.241588 17.483569,-12.364578 27.728133,-12.364578l0.05498,0c8.915887,0 16.548912,3.853657 29.194261,10.209452c16.493933,8.291756 54.164242,30.674017 70.685665,47.284924c8.036211,8.07259 12.517062,13.222976 14.70709,19.003462c3.298787,8.702691 0.192429,15.524212 -1.832659,20.090157c-0.339042,0.757947 -0.714737,1.588949 -1.108759,2.51127a161.72301,161.168717 0 0 1 -14.010679,26.09894c-9.740584,14.519704 -19.609453,25.76106 -36.085059,33.404452a61.778941,61.567199 0 0 1 -27.077539,5.908332z"/>
</svg>